<?xml version="1.0" encoding="UTF-8"?>
<svg xmlns="http://www.w3.org/2000/svg" version="1.1" height="100" width="100">
	
	
    <path d="M 4,30 C 55,-12.5 96,30 96,30 L 92,34 C 50,-6 8,34, 8,34 L 4,30 Z" style="fill:#2BB927;stroke:#222222;stroke-width:1"/>
    <path d="M 13,40 C 55,6.5 87,40 87,40 L 83,44 C 50,12.5 17,44, 17,44 L 13,40 Z" style="fill:#2BB927;stroke:#222222;stroke-width:1"/>
    <path d="M 22,50 C 53.5,25 78,50 78,50 L 74,54 C 50,31 26,54, 26,54 L 22,50 Z" style="fill:#2BB927;stroke:#222222;stroke-width:1"/>
    <path d="M 31,60 C 52.5,43 69,60 69,60 L 65,64 C 50,50 35,64, 35,64 L 31,60 Z" style="fill:#2BB927;stroke:#222222;stroke-width:1"/>
    <ellipse cx="50" cy="80" rx="10" ry="10" style="fill:#2BB927;stroke:#222222;stroke-width:2"/>
</svg>
