<?xml version="1.0" encoding="UTF-8"?>
<svg xmlns="http://www.w3.org/2000/svg" version="1.1" height="48px" width="48px" viewBox="0 0 100 100">
  <path style="fill:#000;opacity:0.6" d="m 82.5,12.5 -60,0 q -10,0 -10,10 l 0,23.75 q 0,10 10,10 l 42.5,0 q 7.5,0 7.5,7.5 l 0,3.75 q 0,7.5 -7.5,7.5 l -47.5,0 0,-5 l -5,11.25 5,11.25 0,-5 57.5,0 q 10,0 10,-10 l 0,-23.75 q 0,-10 -10,-10 l -42.5,0 q -7.5,0 -7.5,-7.5 l 0,-3.75 q 0,-7.5 7.5,-7.5 l 50,0 0,5 5,-11.25 -5,-11.25 0,5 z"/>
  <path style="fill:#1E567D;" d="m 40,50 30,0 0,21 -30,0 z"/>
  <path style="fill:#3B739A;" d="m 55,65 30,0 0,21 -30,0 z"/>


</svg>
